<?xml version="1.0" standalone="no"?>
<!DOCTYPE svg PUBLIC "-//W3C//DTD SVG 20010904//EN"
 "http://www.w3.org/TR/2001/REC-SVG-20010904/DTD/svg10.dtd">
<svg version="1.0" xmlns="http://www.w3.org/2000/svg"
 width="225.000000pt" height="225.000000pt" viewBox="0 0 225.000000 225.000000"
 preserveAspectRatio="xMidYMid meet">

<g transform="translate(0.000000,225.000000) scale(0.100000,-0.100000)"
fill="#000000" stroke="none">
<path d="M936 2240 c-211 -34 -434 -140 -593 -284 -166 -151 -291 -373 -328
-581 -17 -100 -20 -362 -5 -470 64 -452 465 -831 947 -896 123 -16 346 -6 448
21 341 89 599 294 745 594 84 172 94 222 94 496 1 215 -1 242 -22 320 -105
384 -414 680 -817 781 -92 23 -369 34 -469 19z m359 -83 l50 -11 -35 -7 c-32
-7 -31 -7 12 -6 25 1 44 -1 41 -5 -2 -5 -12 -8 -21 -8 -15 0 -15 -2 -2 -11 11
-8 12 -12 3 -16 -18 -7 -16 -43 2 -43 8 0 15 -4 15 -9 0 -5 15 -14 33 -21 l32
-11 -32 -29 c-18 -17 -33 -33 -33 -37 -1 -5 -19 -21 -40 -38 -21 -16 -39 -35
-40 -42 0 -22 -88 -56 -134 -51 -72 8 -303 -35 -322 -60 -6 -8 -16 -12 -22 -8
-11 7 -111 -42 -143 -70 -8 -8 -20 -14 -26 -14 -5 0 -20 -11 -33 -25 -13 -14
-27 -25 -31 -25 -6 0 -89 -79 -89 -86 0 -1 -12 -16 -26 -31 -37 -40 -101 -152
-128 -226 -37 -98 -50 -188 -43 -299 9 -145 -9 -210 -32 -115 l-11 42 5 -43
c4 -31 2 -42 -8 -42 -7 0 -24 -11 -37 -25 -13 -14 -29 -25 -37 -25 -19 0 -16
-17 4 -29 16 -9 16 -10 -3 -8 -11 0 -21 6 -21 13 0 6 -7 27 -16 45 -27 60 -47
184 -47 302 0 200 63 385 188 553 141 191 333 318 603 399 47 14 56 20 52 36
-3 11 0 19 7 19 7 0 2 9 -11 20 l-24 19 25 2 25 1 -25 7 c-24 7 21 18 145 35
45 6 173 -3 230 -17z m160 -167 c3 -5 1 -10 -4 -10 -6 0 -11 5 -11 10 0 6 2
10 4 10 3 0 8 -4 11 -10z m-227 -341 c62 -48 72 -86 72 -267 l0 -162 164 0
c182 0 216 -8 260 -60 58 -69 54 -161 -9 -225 -42 -42 -58 -45 -259 -48 l-160
-2 -2 -155 c-3 -192 -6 -209 -47 -248 -87 -84 -219 -65 -274 42 -11 21 -16 72
-18 195 l-3 166 -184 5 c-171 5 -185 6 -216 28 -82 59 -90 173 -19 251 41 44
75 51 252 51 l165 0 0 168 c0 186 5 205 72 255 41 31 60 36 124 33 37 -2 60
-9 82 -27z m-1018 -950 c0 -11 -4 -17 -10 -14 -5 3 -10 13 -10 21 0 8 5 14 10
14 6 0 10 -9 10 -21z m-30 -18 c16 -31 12 -36 -10 -11 -23 26 -24 30 -10 30 5
0 14 -9 20 -19z"/>
<path d="M137 789 c4 -13 8 -18 11 -10 2 7 -1 18 -6 23 -8 8 -9 4 -5 -13z"/>
</g>
</svg>
